<svg width="201" height="30" viewBox="0 0 201 30" fill="none" xmlns="http://www.w3.org/2000/svg">
<path fill-rule="evenodd" clip-rule="evenodd" d="M120.26 12.3931C120.487 11.8129 121.375 11.5772 122.49 11.4593C124.276 11.2236 126.062 11.2236 127.966 11.3414C131.656 11.4593 132.771 11.695 135.445 11.9217C136.007 12.0395 136.896 11.9217 137.123 10.9879C137.458 9.34694 137.458 8.53101 136.225 8.41316C132.762 7.94173 129.634 7.59723 125.727 7.59723C123.497 7.59723 120.478 7.47937 117.912 7.83294C114.675 8.30437 112.101 9.23815 111.212 13.3269C110.206 17.887 111.321 20.3439 117.024 21.042C121.158 21.74 126.071 22.0936 127.186 22.2115C128.301 22.3293 128.746 23.0274 128.419 23.9612C128.419 24.079 128.419 24.1969 128.311 24.4326C128.084 25.0128 127.195 25.2485 126.08 25.3664C124.294 25.4843 120.722 25.3664 118.819 25.2485C115.138 25.1307 114.014 24.895 111.339 24.6683C110.777 24.5505 109.889 24.6683 109.662 25.6021C109.327 27.243 109.327 28.059 110.56 28.1768C114.023 28.6483 117.15 28.8749 121.058 28.9928C132.78 29.573 136.243 27.5875 137.141 22.2115C137.585 19.7546 137.25 16.4818 133.233 15.9016C129.217 15.2035 122.517 14.7321 121.393 14.6142C120.278 14.4964 119.834 13.7983 120.16 12.8645C120.16 12.7467 120.16 12.6288 120.269 12.3931" fill="white"/>
<path fill-rule="evenodd" clip-rule="evenodd" d="M149.742 12.3931C149.969 11.8129 150.858 11.5772 151.973 11.4593C153.759 11.2236 155.545 11.2236 157.448 11.3414C161.129 11.4593 162.253 11.695 164.928 11.9217C165.49 12.0395 166.378 11.9217 166.605 10.9879C166.94 9.34694 166.94 8.53101 165.708 8.41316C162.244 7.94173 159.117 7.59723 155.209 7.59723C152.979 7.59723 149.96 7.47937 147.394 7.83294C144.158 8.30437 141.583 9.23815 140.695 13.3269C139.688 17.887 140.803 20.3439 146.497 21.042C150.631 21.74 155.545 22.0936 156.66 22.2115C157.775 22.3293 158.219 23.0274 157.893 23.9612C157.893 24.079 157.893 24.1969 157.784 24.4326C157.557 25.0128 156.669 25.2485 155.554 25.3664C153.768 25.4843 150.196 25.3664 148.292 25.2485C144.602 25.1307 143.487 24.895 140.813 24.6683C140.25 24.5505 139.362 24.6683 139.135 25.6021C138.8 27.243 138.8 28.059 140.033 28.1768C143.496 28.6483 146.624 28.8749 150.531 28.9928C162.253 29.573 165.717 27.5875 166.614 22.2115C167.058 19.7546 166.723 16.4818 162.707 15.9016C158.691 15.2035 151.991 14.7321 150.867 14.6142C149.752 14.4964 149.307 13.7983 149.634 12.8645C149.634 12.7467 149.634 12.6288 149.742 12.3931Z" fill="white"/>
<path fill-rule="evenodd" clip-rule="evenodd" d="M190.167 16.373C189.941 16.7266 189.388 16.9532 188.934 16.9532H180.893C179.778 16.9532 179.66 16.4818 179.995 15.0856C180.557 12.8645 182.343 11.1148 184.574 10.9969C185.807 10.8791 187.139 10.8791 188.372 11.2326C190.385 11.7041 191.391 14.6233 190.158 16.373M194.41 8.64886C194.301 8.531 194.184 8.531 194.075 8.531C188.599 7.47936 183.132 7.47936 177.774 8.76671C173.64 9.7005 171.075 12.3931 170.177 16.7175C170.068 17.7692 169.842 18.8208 169.733 19.8724C169.397 23.9612 172.416 27.4697 176.206 28.2947C178.218 28.7661 180.34 28.9927 182.343 28.9927C187.593 28.9927 190.829 28.757 194.854 28.1768C196.087 27.9411 196.532 27.4787 196.414 25.8378C196.414 25.0219 195.516 24.7862 194.854 24.7862C191.056 24.904 187.04 25.2576 183.35 25.2576C181.79 25.2576 180.449 24.6774 179.66 24.0881C178.88 23.39 178.545 22.1027 178.88 21.051C179.216 20.1172 180.104 20.2351 180.893 20.2351H194.854C195.634 20.2351 197.085 20.2351 198.091 20.1172C199.097 19.9994 199.541 19.537 199.768 18.5942C200.883 13.5626 199.659 10.0541 194.41 8.65792" fill="white"/>
<path fill-rule="evenodd" clip-rule="evenodd" d="M38.9571 0C34.4876 0 34.1521 0 32.8194 2.45686C29.8005 7.83294 26.8994 13.2181 23.8895 18.5942C23.1099 20.1172 22.2123 21.7491 21.3239 23.2722C20.5442 24.6774 19.3112 24.5595 18.0874 24.4417C16.9722 24.4417 16.8544 23.5079 16.6368 22.692C15.8571 19.8815 15.0775 16.9623 14.2887 14.0431C13.2824 10.2989 12.1673 6.44586 11.161 2.70164C10.8256 1.17857 10.0459 0.244779 8.3687 0.244779H2.8929C-0.126047 0.235713 -0.461485 1.28736 0.436039 4.32443C1.669 8.2953 2.8929 12.3931 4.12586 16.4818C5.13218 19.5189 6.02063 22.6829 7.02695 25.8378C7.47118 27.3609 8.3687 28.5304 10.0459 28.5304C12.0585 28.5304 19.0937 28.5304 20.653 28.2947C23.0011 28.4125 24.5604 27.4787 25.7934 25.3755C30.145 17.6604 34.6145 10.0541 39.084 2.339C39.3106 1.98543 39.5282 1.64093 39.6461 1.28736C39.7549 0.70714 39.6461 0 38.9752 0" fill="white"/>
<path fill-rule="evenodd" clip-rule="evenodd" d="M49.4554 8.42222C48.6757 8.42222 45.6567 8.30437 44.7683 8.42222C43.3177 8.54008 42.2026 9.70958 41.976 11.1148C41.5318 14.1519 41.0785 17.0802 40.6342 20.1172C40.2988 22.2205 39.9634 24.3238 39.7367 26.4271C39.6279 27.4787 40.4076 28.5304 41.4139 28.5304H46.2188C48.1136 28.5304 48.5669 27.8323 48.9023 25.8378C49.3466 22.8007 49.7999 19.8725 50.2441 16.8354C50.5795 14.7321 50.915 12.6288 51.1416 10.5255C51.2504 9.47387 50.4707 8.54008 49.4644 8.42222" fill="white"/>
<path fill-rule="evenodd" clip-rule="evenodd" d="M51.3594 0H45.7748C44.3242 0 43.0913 0.698074 42.9825 2.22115C42.9825 2.57472 42.9825 2.80136 42.8737 3.5085C42.7649 4.56015 43.5445 5.61179 44.5509 5.61179H50.2442C52.139 5.61179 52.5923 4.91372 52.9278 2.91922C52.9278 2.56565 52.9278 2.91922 53.0365 2.10329C53.1453 1.05164 52.3657 0 51.3594 0Z" fill="white"/>
<path fill-rule="evenodd" clip-rule="evenodd" d="M75.0302 8.42221H67.6596C66.8799 8.42221 66.4357 7.84199 66.4357 7.01699C66.5445 5.96535 66.7712 4.91371 66.8799 3.86206C66.9887 2.81042 66.2091 1.87663 65.2028 1.75877C64.4231 1.64092 61.4041 1.64092 60.5157 1.75877C59.1739 1.75877 58.0588 2.92827 57.8322 4.33349C57.388 7.37057 56.9347 10.2989 56.4904 13.3359C56.4904 13.3359 56.2638 14.7411 56.0462 16.4909C55.7108 19.0656 55.4841 20.6974 55.1487 23.2722C54.922 25.4933 56.0462 27.1342 58.0498 27.8323C59.2737 28.3037 60.6154 28.5304 61.9572 28.6482C65.8646 29.1197 69.8898 28.7661 73.7972 28.2947C75.5832 28.0589 75.9187 27.7144 75.9187 25.9557C75.9187 24.7862 75.8099 24.6683 74.6857 24.7862C73.3439 24.904 71.8934 25.1397 70.5516 25.1397C69.1011 25.1397 67.6506 25.2576 66.2 25.0219C65.1937 24.904 64.1874 23.9702 64.3052 22.9186C64.3052 21.9848 65.3116 16.0194 65.4203 14.6142C65.647 12.8645 65.647 11.5771 67.3151 11.5771H75.0211C76.2541 11.5771 76.5805 10.9879 76.5805 9.356C76.5805 8.42221 75.6829 8.42221 75.0211 8.42221" fill="white"/>
<path fill-rule="evenodd" clip-rule="evenodd" d="M98.5926 16.373C98.366 16.7266 97.8129 16.9532 97.3596 16.9532H89.3182C88.2031 16.9532 88.0852 16.4818 88.4207 15.0856C88.9827 12.8645 90.7687 11.1148 92.9989 10.9969C94.2319 10.8791 95.5646 10.8791 96.7975 11.2326C98.8102 11.7041 99.8165 14.6233 98.5835 16.373M102.835 8.64886C102.727 8.531 102.609 8.531 102.5 8.531C97.0242 7.47936 91.5575 7.47936 86.1995 8.76671C82.0655 9.7005 79.4998 12.3931 78.6023 16.7175C78.4935 17.7692 78.2668 18.8208 78.1581 19.8724C77.8226 23.9612 80.8416 27.4697 84.6311 28.2947C86.6437 28.7661 88.7652 28.9927 90.7687 28.9927C96.0179 28.9927 99.2544 28.757 103.28 28.1768C104.513 27.9411 104.957 27.4787 104.839 25.8378C104.839 25.0219 103.941 24.7862 103.28 24.7862C99.4811 24.904 95.4649 25.2576 91.775 25.2576C90.2157 25.2576 88.874 24.6774 88.0852 24.0881C87.3056 23.39 86.9701 22.1027 87.3056 21.051C87.641 20.1172 88.5385 20.2351 89.3182 20.2351H103.28C104.059 20.2351 105.628 20.2351 106.516 20.1172C107.523 19.9994 107.967 19.537 108.193 18.5942C109.308 13.5626 108.085 10.0541 102.835 8.65792" fill="white"/>
</svg>
